<?xml version="1.0" encoding="utf-8"?>
<!-- Generator: Adobe Illustrator 16.0.0, SVG Export Plug-In . SVG Version: 6.00 Build 0)  -->
<!DOCTYPE svg PUBLIC "-//W3C//DTD SVG 1.1//EN" "http://www.w3.org/Graphics/SVG/1.1/DTD/svg11.dtd">
<svg version="1.1" id="Layer_1" xmlns="http://www.w3.org/2000/svg" xmlns:xlink="http://www.w3.org/1999/xlink" x="0px" y="0px"
	 width="2921.285px" height="1352px" viewBox="0 604.09 2921.285 1352" enable-background="new 0 604.09 2921.285 1352"
	 xml:space="preserve">
<g>
	<path fill="#E39700" d="M314.72,816.843v741.359c39.718-19.859,86.472-19.859,126.189,0V816.843
		c0-26.137-21.185-47.321-47.321-47.321h-31.547C335.903,769.521,314.72,790.706,314.72,816.843"/>
	<path fill="#434C6D" d="M929.889,832.396v-31.548c0-17.429-14.133-31.547-31.548-31.547h-94.642
		c-17.413,0-31.547,14.118-31.547,31.547v31.548h-63.095c-8.706,0-15.774,7.066-15.774,15.773v110.636
		c0,8.834,7.162,15.993,15.994,15.993H992.76c8.834,0,15.994-7.161,15.994-15.993V848.17c0-8.707-7.067-15.773-15.774-15.773
		H929.889z"/>
	<path fill="#6C4126" d="M1008.757,879.718v79.088c0,8.834-7.161,15.993-15.993,15.993H709.281c-8.834,0-15.994-7.161-15.994-15.993
		v-79.088H535.551v804.674h630.944V879.718H1008.757z"/>
	<polygon fill="#CCC6AE" points="961.436,1605.523 961.436,1479.334 1087.625,1479.334 	"/>
	<path fill="#ECE8D8" d="M1008.757,943.031v15.774c0,8.834-7.161,15.993-15.993,15.993H709.281c-8.834,0-15.994-7.161-15.994-15.993
		v-15.774h-78.868v662.492h347.019v-126.189h126.189V943.031H1008.757z"/>
	<g>
		<polygon fill="#C9B693" points="693.285,1148.09 787.928,1148.09 787.928,1053.447 693.285,1053.447 		"/>
		<polygon fill="#C9B693" points="693.285,1321.598 787.928,1321.598 787.928,1226.958 693.285,1226.958 		"/>
		<polygon fill="#C9B693" points="693.285,1495.108 787.928,1495.108 787.928,1400.466 693.285,1400.466 		"/>
		<path fill="#C9B693" d="M1008.757,1069.221H866.794c-8.706,0-15.773-7.051-15.773-15.773s7.067-15.773,15.773-15.773h141.963
			c8.706,0,15.773,7.051,15.773,15.773S1017.463,1069.221,1008.757,1069.221"/>
		<path fill="#C9B693" d="M961.436,1148.09h-94.642c-8.706,0-15.773-7.052-15.773-15.774s7.067-15.773,15.773-15.773h94.642
			c8.707,0,15.773,7.051,15.773,15.773S970.145,1148.09,961.436,1148.09"/>
		<path fill="#C9B693" d="M1008.757,1242.729H866.794c-8.706,0-15.773-7.051-15.773-15.773c0-8.724,7.067-15.773,15.773-15.773
			h141.963c8.706,0,15.773,7.05,15.773,15.773C1024.53,1235.679,1017.463,1242.729,1008.757,1242.729"/>
		<path fill="#C9B693" d="M961.436,1321.598h-94.642c-8.706,0-15.773-7.051-15.773-15.773c0-8.724,7.067-15.774,15.773-15.774
			h94.642c8.707,0,15.773,7.051,15.773,15.774C977.209,1314.547,970.145,1321.598,961.436,1321.598"/>
		<path fill="#C9B693" d="M1008.757,1432.014H866.794c-8.706,0-15.773-7.051-15.773-15.774c0-8.723,7.067-15.773,15.773-15.773
			h141.963c8.706,0,15.773,7.051,15.773,15.773C1024.53,1424.963,1017.463,1432.014,1008.757,1432.014"/>
		<path fill="#C9B693" d="M898.341,1510.882h-31.547c-8.706,0-15.773-7.051-15.773-15.773c0-8.724,7.067-15.774,15.773-15.774
			h31.547c8.707,0,15.774,7.051,15.774,15.774C914.115,1503.831,907.05,1510.882,898.341,1510.882"/>
	</g>
	<path fill="#E0A370" d="M377.814,1684.392l-63.095-126.189l0,0c39.718-19.859,86.472-19.859,126.189,0l0,0L377.814,1684.392z"/>
	<g>
		<polygon fill="#FFCB43" points="314.72,927.259 440.907,927.259 440.907,864.163 314.72,864.163 		"/>
		<polygon fill="#FFCB43" points="362.041,1542.429 393.588,1542.429 393.588,927.259 362.041,927.259 		"/>
	</g>
</g>
<text transform="matrix(1 0 0 1 1307.2852 1613.8496)" fill="#0B5394" font-family="'Roboto-Black'" font-size="400">Minutu</text>
</svg>
